<?xml version="1.0" encoding="iso-8859-1"?>
<!-- Generator: Adobe Illustrator 26.0.1, SVG Export Plug-In . SVG Version: 6.00 Build 0)  -->
<svg version="1.1" id="Layer_1" xmlns="http://www.w3.org/2000/svg" xmlns:xlink="http://www.w3.org/1999/xlink" x="0px" y="0px"
	 width="78.226px" height="379.347px" viewBox="0 0 78.226 379.347" enable-background="new 0 0 78.226 379.347"
	 xml:space="preserve">
<path d="M24.51,9.981c-7.78,0-14.087,6.307-14.087,14.087V150.12c0,7.78,6.307,14.087,14.087,14.087s14.087-6.307,14.087-14.087
	V24.067C38.597,16.287,32.29,9.981,24.51,9.981z"/>
<g>
	<path fill="none" stroke="#000000" stroke-width="3" stroke-miterlimit="10" d="M40.659,246.795
		c-1.844-1.844-25.402-25.703-25.402-25.703c-6.444-6.444-6.444-16.891,0-23.335c6.444-6.444,16.891-6.444,23.335,0l8.423,8.27
		V25.184c0-12.428-10.075-22.504-22.504-22.504c-12.428,0-22.504,10.075-22.504,22.504v226.86c0,12.428,10.075,22.504,22.504,22.504
		c7.512,0,14.159-3.684,18.247-9.34c-0.001-4.779-0.003-9.083-0.005-12.683C42.752,249.717,42.503,248.639,40.659,246.795z"/>
	<path fill="none" stroke="#000000" stroke-width="3" stroke-miterlimit="10" d="M71.529,230.119l0.01-0.009
		c0,0-1.052-1.086-1.53-1.503l-22.995-22.579l-8.423-8.27c-6.444-6.444-16.891-6.444-23.335,0c-6.444,6.444-6.444,16.891,0,23.335
		c0,0,23.558,23.858,25.402,25.703s2.093,2.922,2.093,5.73c0.002,3.6,0.004,7.904,0.005,12.683
		c0.009,35.258-0.005,96.665-0.005,96.665c0.723,8.445,7.796,15.076,16.428,15.076c8.632,0,15.705-6.631,16.428-15.076
		c0,0,0-120.411,0-120.836C75.608,236.844,74.104,233.029,71.529,230.119z"/>
</g>
</svg>
