<?xml version="1.0" encoding="iso-8859-1"?>
<!-- Generator: Adobe Illustrator 26.0.1, SVG Export Plug-In . SVG Version: 6.00 Build 0)  -->
<svg version="1.1" id="Layer_1" xmlns="http://www.w3.org/2000/svg" xmlns:xlink="http://www.w3.org/1999/xlink" x="0px" y="0px"
	 width="192.44px" height="379.347px" viewBox="0 0 192.44 379.347" enable-background="new 0 0 192.44 379.347"
	 xml:space="preserve">
<path fill="#B0B0B0" d="M24.958,9.84c-7.78,0-14.087,6.307-14.087,14.087v126.053c0,7.78,6.307,14.087,14.087,14.087
	s14.087-6.307,14.087-14.087V23.926C39.045,16.146,32.738,9.84,24.958,9.84z"/>
<g>
	<path fill="none" stroke="#B0B0B0" stroke-width="3" stroke-miterlimit="10" d="M41.107,246.654
		c-1.844-1.844-25.402-25.703-25.402-25.703c-6.444-6.444-6.444-16.891,0-23.335c6.444-6.444,16.891-6.444,23.335,0l8.423,8.27
		V25.043c0-12.428-10.075-22.504-22.504-22.504C12.53,2.54,2.455,12.615,2.455,25.043v226.86c0,12.428,10.075,22.504,22.504,22.504
		c7.512,0,14.159-3.684,18.247-9.34c-0.001-4.779-0.003-9.083-0.005-12.683C43.2,249.575,42.951,248.498,41.107,246.654z"/>
	<path fill="none" stroke="#B0B0B0" stroke-width="3" stroke-miterlimit="10" d="M71.977,229.978l0.01-0.009
		c0,0-1.052-1.086-1.53-1.503l-22.995-22.579l-8.423-8.27c-6.444-6.444-16.891-6.444-23.335,0c-6.444,6.444-6.444,16.891,0,23.335
		c0,0,23.558,23.858,25.402,25.703s2.093,2.922,2.093,5.73c0.002,3.6,0.004,7.904,0.005,12.683
		c0.009,35.258-0.005,96.665-0.005,96.665c0.723,8.445,7.796,15.076,16.428,15.076c8.632,0,15.705-6.631,16.428-15.076
		c0,0,0-120.411,0-120.836C76.056,236.703,74.552,232.888,71.977,229.978z"/>
</g>
<g>
	<path fill="#FFFFFF" d="M24.917,223.627c-3.939,0-7.644-1.535-10.43-4.32c-5.751-5.751-5.751-15.108,0-20.86l30.897-31.466
		l0.033-0.039c0.227-0.26,0.785-0.82,1.194-1.222l0.159-0.138c2.652-2.347,6.117-3.64,9.757-3.64h120.759
		c7.522,0.682,13.403,7.115,13.403,14.678c0,7.562-5.882,13.996-13.403,14.678c-1.832,0-35.996-0.008-67.517-0.008
		c-16.199,0-31.702,0.002-41.755,0.008c-3.218,0-4.755,0.394-6.966,2.606c-1.819,1.819-25.457,25.159-25.695,25.395
		C32.56,222.091,28.856,223.627,24.917,223.627z"/>
	<path d="M177.206,163.692c6.592,0.638,11.735,6.289,11.735,12.928c0,6.639-5.143,12.291-11.734,12.928
		c-2.589-0.001-36.334-0.008-67.483-0.008c-16.18,0-31.666,0.002-41.706,0.008c-3.517,0-5.536,0.45-8.205,3.118
		c-1.815,1.815-25.448,25.151-25.702,25.402c-2.455,2.455-5.72,3.808-9.192,3.808s-6.737-1.352-9.192-3.808
		c-5.069-5.069-5.069-13.316,0.023-18.408l30.849-31.418l0.073-0.074l0.068-0.078c0.163-0.187,0.625-0.654,1.046-1.069l0.147-0.13
		c2.333-2.064,5.386-3.201,8.598-3.201H177.206 M177.364,160.192c0,0-120.411,0-120.836,0c-4.192,0-8.007,1.504-10.918,4.08
		l-0.009-0.01c0,0-1.086,1.052-1.503,1.53L13.25,197.209c-6.444,6.444-6.444,16.891,0,23.335c3.222,3.222,7.445,4.833,11.667,4.833
		s8.445-1.611,11.667-4.833c0,0,23.858-23.558,25.703-25.402c1.844-1.844,2.922-2.093,5.73-2.093
		c10.042-0.006,25.527-0.008,41.706-0.008c32.415,0,67.642,0.008,67.642,0.008c8.445-0.723,15.076-7.796,15.076-16.428
		C192.44,167.988,185.809,160.915,177.364,160.192L177.364,160.192z"/>
</g>
</svg>
