<?xml version="1.0" encoding="iso-8859-1"?>
<!-- Generator: Adobe Illustrator 26.0.1, SVG Export Plug-In . SVG Version: 6.00 Build 0)  -->
<svg version="1.1" id="Layer_1" xmlns="http://www.w3.org/2000/svg" xmlns:xlink="http://www.w3.org/1999/xlink" x="0px" y="0px"
	 width="197.821px" height="379.347px" viewBox="0 0 197.821 379.347" enable-background="new 0 0 197.821 379.347"
	 xml:space="preserve">
<g>
	<path fill="#FFFFFF" stroke="#B0B0B0" stroke-width="3" d="M15.705,220.543c-6.444-6.444-6.444-16.891,0-23.335l30.849-31.418
		c0.209-0.239,0.585-0.622,0.908-0.945V25.043c0-12.428-10.075-22.504-22.504-22.504C12.53,2.54,2.455,12.615,2.455,25.043v226.86
		c0,12.428,10.075,22.504,22.504,22.504c12.428,0,22.504-10.075,22.504-22.504v-39.678c-4.654,4.597-8.423,8.318-8.423,8.318
		C32.595,226.987,22.148,226.987,15.705,220.543z"/>
	<path fill="#FFFFFF" stroke="#B0B0B0" stroke-width="3" d="M179.819,160.192c0,0-120.411,0-120.836,0
		c-4.192,0-8.007,1.504-10.918,4.08l-0.009-0.01c0,0-0.271,0.263-0.594,0.585c-0.324,0.323-0.7,0.706-0.908,0.945l-30.849,31.418
		c-6.444,6.444-6.444,16.891,0,23.335c6.444,6.444,16.891,6.444,23.335,0c0,0,3.769-3.721,8.423-8.318
		c7.062-6.975,16.168-15.972,17.28-17.084c1.844-1.844,2.922-2.093,5.73-2.093c30.16-0.018,109.348,0,109.348,0
		c8.445-0.723,15.076-7.796,15.076-16.428C194.895,167.988,188.264,160.915,179.819,160.192z"/>
</g>
<path fill="#B0B0B0" d="M24.958,9.84c-7.78,0-14.087,6.307-14.087,14.087v126.053c0,7.78,6.307,14.087,14.087,14.087
	s14.087-6.307,14.087-14.087V23.926C39.045,16.146,32.738,9.84,24.958,9.84z"/>
<path fill="#FFFFFF" stroke="#000000" stroke-width="3" d="M71.977,229.978l0.01-0.009c0,0-1.052-1.086-1.53-1.503l-31.418-30.849
	c-6.444-6.444-16.891-6.444-23.335,0c-6.444,6.444-6.444,16.891,0,23.335c0,0,23.558,23.858,25.402,25.703
	c1.844,1.844,2.093,2.922,2.093,5.73c0.018,30.16,0,109.348,0,109.348c0.723,8.445,7.796,15.076,16.428,15.076
	c8.632,0,15.705-6.631,16.428-15.076c0,0,0-120.411,0-120.836C76.056,236.703,74.552,232.888,71.977,229.978z"/>
</svg>
