<?xml version="1.0" encoding="iso-8859-1"?>
<!-- Generator: Adobe Illustrator 25.4.2, SVG Export Plug-In . SVG Version: 6.00 Build 0)  -->
<svg version="1.1" id="Layer_1" xmlns="http://www.w3.org/2000/svg" xmlns:xlink="http://www.w3.org/1999/xlink" x="0px" y="0px"
	 width="200px" height="200px" viewBox="0 0 200 200" enable-background="new 0 0 200 200" xml:space="preserve">
<g>
	<g>
		<path fill="#3F4142" d="M58.524,79.697l-26.465,0c-1.724,0-2.554,0.596-2.554,1.755l0,2.067c0,1.157,0.83,1.723,2.554,1.723
			l20.309,0c4.608,0,6.927,1.844,6.927,5.502v3.033c0,3.686-2.318,5.56-6.927,5.56l-26.493,0v-4.223l26.493,0
			c1.669,0,2.527-0.594,2.527-1.783l0-2.053c0-1.189-0.859-1.814-2.527-1.814l-20.309,0c-4.666,0-6.987-1.663-6.987-4.964l0-3.493
			c0-3.688,2.321-5.53,6.987-5.53l26.465,0L58.524,79.697z"/>
		<path fill="#3F4142" d="M96.422,79.698l-25.809,0c-1.813,0-2.764,0.803-2.764,2.29v3.253l28.454,0l0,4.221l-28.454,0v3.36
			c0,1.547,0.922,2.29,2.764,2.29l25.899,0v4.223l-25.899,0c-4.815,0-7.196-1.933-7.196-5.856l0-12.146
			c0-3.894,2.382-5.858,7.196-5.858l25.809,0V79.698z"/>
		<path fill="#3F4142" d="M135.106,79.713l-27.059,0c-1.813,0-2.764,0.803-2.764,2.29l0.033,10.821c0,1.547,0.918,2.29,2.762,2.29
			l27.147,0v4.223l-27.147,0c-4.817,0-7.196-1.934-7.196-5.858l-0.03-12.131c0-3.895,2.379-5.858,7.195-5.858l27.059,0V79.713z"/>
		<path fill="#3F4142" d="M174.928,93.538c0,3.866-2.379,5.798-7.195,5.798l-20.873,0c-4.817,0-7.197-1.933-7.197-5.858
			l-0.028-18.068h4.43l0.028,17.622c0,1.398,0.923,2.081,2.767,2.081l20.873,0c1.844,0,2.767-0.654,2.767-2.022l0-17.621h4.428
			V93.538z"/>
	</g>
	<g>
		<path fill="#9A9B9D" d="M135.118,124.488c0,5.054-2.972,7.582-8.978,7.582h-18.376c-6.006,0-8.979-2.527-8.979-7.582v-8.636
			c0-5.084,2.973-7.642,8.979-7.642l18.376,0c6.006,0,8.978,2.558,8.978,7.642V124.488z M109.726,112.433
			c-4.252,0-6.511,0.714-6.511,3.42l0,6.465c0,3.331,0.178,5.53,4.549,5.53l16.411,0c4.193,0,6.514-0.624,6.514-3.359v-6.495
			c0-3.361-0.209-5.561-4.549-5.561H109.726z"/>
		<path fill="#9A9B9D" d="M174.928,126.272c0,3.866-2.378,5.798-7.195,5.798H146.86c-4.817,0-7.195-1.933-7.195-5.858l0-18.005h4.43
			l0,17.559c0,1.398,0.919,2.081,2.765,2.081l20.873,0c1.844,0,2.767-0.654,2.767-2.022l0-17.618h4.428V126.272z"/>
		<polygon fill="#9A9B9D" points="98.769,108.211 93.152,108.211 80.384,120.98 67.619,108.211 61.999,108.211 78.066,124.278 
			78.067,132.064 82.7,132.064 82.703,124.278 		"/>
	</g>
</g>
</svg>
